<svg width="140" height="56" viewBox="0 0 140 56" fill="none" xmlns="http://www.w3.org/2000/svg">
<path d="M12.396 12.7232H5.94395L0.705322 37.4915H15.2992L16.4307 32.0643H8.29276L12.396 12.7232Z" fill="#2B3234"/>
<path d="M33.2306 12.3536C30.9789 12.3536 28.9939 12.8223 27.329 13.7462C25.6717 14.6663 24.283 15.9159 23.201 17.457C22.1285 18.9867 21.317 20.7107 20.7931 22.5833C20.2711 24.4463 20.0063 26.3589 20.0063 28.2676C20.0063 31.1098 20.8083 33.4358 22.3914 35.1807C23.9839 36.9371 26.3518 37.8267 29.4302 37.8267C31.6818 37.8267 33.663 37.3581 35.3146 36.4342C36.9605 35.5141 38.332 34.2644 39.3931 32.7195C40.4446 31.1879 41.2314 29.4582 41.7343 27.5742C42.2334 25.6998 42.4867 23.7719 42.4867 21.8441C42.4867 19.0038 41.7019 16.6893 40.1532 14.9672C38.5949 13.2337 36.2652 12.3536 33.2306 12.3536ZM35.9832 21.9451C35.9832 23.9777 35.7013 25.8026 35.1469 27.3704C34.5983 28.921 33.8439 30.1555 32.9048 31.0413C31.9809 31.9118 30.9979 32.3347 29.8988 32.3347C28.7996 32.3347 27.9729 32.0033 27.3919 31.3232C26.8051 30.6355 26.5061 29.5973 26.5061 28.2372C26.5061 26.877 26.6661 25.5626 26.9823 24.3091C27.2966 23.0595 27.7424 21.9318 28.3062 20.9583C28.8606 20.0001 29.5311 19.2305 30.3045 18.6686C31.0551 18.1237 31.8799 17.8494 32.7581 17.8494C33.8306 17.8494 34.6136 18.1961 35.1488 18.9105C35.7013 19.6477 35.9813 20.6688 35.9813 21.9489L35.9832 21.9451Z" fill="#2B3234"/>
<path d="M53.3926 21.1565C54.0212 20.1887 54.8346 19.3887 55.8157 18.7829C56.7815 18.1847 57.9607 17.8799 59.3189 17.8799C60.2371 17.8799 61.1019 18.0152 61.8887 18.28C62.6926 18.5524 63.4622 18.8991 64.1765 19.3086L64.529 19.5125L67.0054 14.2491L66.6949 14.0795C64.5861 12.9328 62.1592 12.3517 59.4846 12.3517C57.0863 12.3517 54.9547 12.7823 53.1526 13.6319C51.3486 14.4815 49.8284 15.6588 48.6321 17.1313C47.4415 18.5962 46.5366 20.284 45.9423 22.1489C45.3499 24.0044 45.0508 25.9722 45.0508 27.9991C45.0508 31.1822 45.8966 33.6434 47.5653 35.3122C49.2341 36.9809 51.5238 37.8267 54.3736 37.8267C56.2043 37.8267 57.7968 37.6934 59.1055 37.4324C60.4009 37.1733 61.6315 36.859 62.7631 36.4971L62.9707 36.4304L65.8377 22.9814H55.4518L54.2784 28.34H58.3817L57.5606 32.0509C57.2101 32.1195 56.8901 32.1747 56.6043 32.2204C56.2672 32.2738 55.8462 32.3004 55.3509 32.3004C54.0212 32.3004 53.0821 31.9442 52.4782 31.2089C51.8648 30.4641 51.5543 29.2925 51.5543 27.7305C51.5543 26.6465 51.7029 25.5112 51.9963 24.3587C52.2877 23.2157 52.7582 22.1394 53.3945 21.1565H53.3926Z" fill="#2B3234"/>
<path d="M67.7826 37.4915H74.248L79.4828 12.7232H73.0765L67.7826 37.4915Z" fill="#2B3234"/>
<path d="M138.988 14.1176C137.976 13.5442 136.881 13.1061 135.732 12.8184C134.586 12.5327 133.344 12.386 132.043 12.386C130.311 12.386 128.772 12.7156 127.469 13.3671C126.156 14.0243 125.12 14.9463 124.392 16.1102C123.663 17.276 123.293 18.6266 123.293 20.1278C123.293 21.7717 123.708 23.1662 124.527 24.271C125.318 25.3378 126.267 26.296 127.345 27.1228C128.135 27.7152 128.802 28.2714 129.328 28.7743C129.793 29.2201 130.019 29.7592 130.019 30.4202C130.019 31.0813 129.785 31.5423 129.301 31.8528C128.772 32.1918 128.042 32.3652 127.133 32.3652C126.17 32.3652 125.162 32.1899 124.143 31.847C123.108 31.4984 122.118 31.0565 121.2 30.5307L120.638 30.2107V36.1427L120.811 36.2532C121.581 36.7428 122.51 37.1314 123.575 37.4095C124.632 37.6857 125.796 37.8248 127.034 37.8248C128.869 37.8248 130.509 37.5257 131.905 36.9371C133.323 36.3389 134.454 35.4341 135.266 34.2473C136.079 33.0567 136.493 31.588 136.493 29.8811C136.493 28.4505 136.152 27.1628 135.479 26.0541C134.816 24.9606 133.789 23.9262 132.431 22.9814C131.471 22.307 130.768 21.7241 130.34 21.2536C129.953 20.8288 129.764 20.3278 129.764 19.7239C129.764 19.1943 129.949 18.7543 130.328 18.3752C130.701 18.0018 131.292 17.8132 132.081 17.8132C132.78 17.8132 133.525 17.9313 134.292 18.1676C135.081 18.4095 135.879 18.72 136.664 19.0896L137.007 19.2515L139.295 14.2891L138.994 14.1195L138.988 14.1176Z" fill="#2B3234"/>
<path d="M94.1111 0L84.2644 16.9884L77.9399 27.9019L84.2644 38.8135H87.8895L94.214 27.9019L110.383 0H94.1111Z" fill="#D9D9D9"/>
<path d="M86.6437 42.9187H102.918L94.214 27.9019L87.8895 16.9884H84.2644L77.9399 27.9019L84.2644 38.8135L86.6437 42.9187Z" fill="#D9D9D9"/>
<path d="M106.951 12.4965L104.346 16.9884L98.022 27.9019L104.346 38.8135H107.972L114.296 27.9019L123.223 12.4965H106.951Z" fill="#FABC05"/>
<path d="M130.58 56L114.296 27.9019L107.972 16.9884H104.346L98.022 27.9019L104.346 38.8135L114.307 56H130.58Z" fill="#FABC05"/>
<path d="M4.7305 53.6207H2.47693L2.10356 54.6989H0.912964L2.94746 49.0336H4.2695L6.30399 54.6989H5.10387L4.7305 53.6207ZM3.60467 50.3461L2.78554 52.7121H4.42189L3.60276 50.3461H3.60467Z" fill="#FABC05"/>
<path d="M10.1767 48.9688C11.434 48.9688 12.4551 49.6412 12.836 50.8013H11.5311C11.2645 50.2584 10.7768 49.9917 10.1691 49.9917C9.18043 49.9917 8.4756 50.7137 8.4756 51.8643C8.4756 53.0149 9.18043 53.7369 10.1691 53.7369C10.7768 53.7369 11.2626 53.4702 11.5311 52.9178H12.836C12.4551 54.0855 11.434 54.7503 10.1767 54.7503C8.54799 54.7503 7.30786 53.5597 7.30786 51.8643C7.30786 50.1689 8.54799 48.9707 10.1767 48.9707V48.9688Z" fill="#FABC05"/>
<path d="M17.8843 52.291H15.4612V54.6989H14.3258V49.0412H15.4612V51.3671H17.8843V49.0412H19.0196V54.6989H17.8843V52.291Z" fill="#FABC05"/>
<path d="M20.6541 49.0412H21.7894V54.6989H20.6541V49.0412Z" fill="#FABC05"/>
<path d="M26.708 49.9575H24.5592V51.3767H26.4642V52.2758H24.5592V53.775H26.708V54.6989H23.4258V49.0336H26.708V49.9575Z" fill="#FABC05"/>
<path d="M32.1295 49.0412H33.3372L31.2627 54.6989H29.8854L27.8109 49.0412H29.0263L30.5826 53.5388L32.1314 49.0412H32.1295Z" fill="#FABC05"/>
<path d="M37.8196 49.9575H35.6708V51.3767H37.5758V52.2758H35.6708V53.775H37.8196V54.6989H34.5374V49.0336H37.8196V49.9575Z" fill="#FABC05"/>
<path d="M41.8143 49.0412H43.104L44.9042 53.2473L46.7044 49.0412H47.9845V54.6989H46.8491V51.0185L45.3328 54.6989H44.4736L42.9497 51.0185V54.6989H41.8143V49.0412Z" fill="#FABC05"/>
<path d="M52.2439 54.7561C50.6475 54.7561 49.3427 53.5559 49.3427 51.8548C49.3427 50.1537 50.6475 48.9612 52.2439 48.9612C53.8402 48.9612 55.1375 50.1613 55.1375 51.8548C55.1375 53.5483 53.8479 54.7561 52.2439 54.7561ZM52.2439 53.7426C53.265 53.7426 53.9698 53.0054 53.9698 51.8548C53.9698 50.7042 53.265 49.9822 52.2439 49.9822C51.2228 49.9822 50.5085 50.7042 50.5085 51.8548C50.5085 53.0054 51.2133 53.7426 52.2439 53.7426Z" fill="#FABC05"/>
<path d="M58.6218 49.0412C59.9838 49.0412 60.6639 49.8279 60.6639 50.7766C60.6639 51.4662 60.2829 52.1634 59.3761 52.4053L60.7305 54.6989H59.418L58.1703 52.4949H57.635V54.6989H56.4996V49.0412H58.6237H58.6218ZM58.5817 49.9822H57.6331V51.6433H58.5817C59.2142 51.6433 59.498 51.3119 59.498 50.7994C59.498 50.287 59.2142 49.9803 58.5817 49.9803V49.9822Z" fill="#FABC05"/>
<path d="M65.4928 49.9575H63.344V51.3767H65.249V52.2758H63.344V53.775H65.4928V54.6989H62.2106V49.0336H65.4928V49.9575Z" fill="#FABC05"/>
<path d="M67.1216 53.4512H68.3218L67.316 55.8666H66.5787L67.1216 53.4512Z" fill="#FABC05"/>
<path d="M72.0726 49.0412H75.5663V49.9575H73.208V51.409H75.0158V52.3082H73.208V54.6989H72.0726V49.0412Z" fill="#FABC05"/>
<path d="M80.3553 53.6207H78.1018L77.7284 54.6989H76.5359L78.5704 49.0336H79.8924L81.9269 54.6989H80.7268L80.3534 53.6207H80.3553ZM79.2295 50.3461L78.4104 52.7121H80.0467L79.2276 50.3461H79.2295Z" fill="#FABC05"/>
<path d="M85.1615 54.7561C83.9862 54.7561 83.0794 54.1408 83.0623 53.0702H84.2776C84.31 53.5236 84.6091 53.8245 85.1368 53.8245C85.6644 53.8245 85.9883 53.5407 85.9883 53.1349C85.9883 51.912 83.0699 52.6492 83.0794 50.5975C83.0794 49.5765 83.9062 48.9612 85.0739 48.9612C86.2416 48.9612 87.0265 49.5536 87.1008 50.5747H85.853C85.8283 50.2013 85.5292 49.9099 85.0434 49.9022C84.5977 49.8851 84.2643 50.1042 84.2643 50.5671C84.2643 51.7024 87.1655 51.07 87.1655 53.0645C87.1655 53.956 86.4531 54.758 85.1634 54.758L85.1615 54.7561Z" fill="#FABC05"/>
<path d="M88.3618 49.0412H92.5108V49.9575H91.004V54.6989H89.8686V49.9575H88.3618V49.0412Z" fill="#FABC05"/>
<path d="M97.138 49.9575H94.9892V51.3767H96.8941V52.2758H94.9892V53.775H97.138V54.6989H93.8557V49.0336H97.138V49.9575Z" fill="#FABC05"/>
<path d="M100.809 49.0412C102.171 49.0412 102.851 49.8279 102.851 50.7766C102.851 51.4662 102.47 52.1634 101.563 52.4053L102.918 54.6989H101.605L100.357 52.4949H99.8221V54.6989H98.6868V49.0412H100.811H100.809ZM100.769 49.9822H99.8202V51.6433H100.769C101.401 51.6433 101.685 51.3119 101.685 50.7994C101.685 50.287 101.401 49.9803 100.769 49.9803V49.9822Z" fill="#FABC05"/>
<path d="M104.358 54.6989C104.724 54.6989 105.021 54.4021 105.021 54.036C105.021 53.6699 104.724 53.3731 104.358 53.3731C103.992 53.3731 103.695 53.6699 103.695 54.036C103.695 54.4021 103.992 54.6989 104.358 54.6989Z" fill="#FABC05"/>
</svg>
